<svg width="32" height="32" viewBox="0 0 32 32" fill="none" xmlns="http://www.w3.org/2000/svg">
<rect width="32" height="32" rx="16" />
<path fill-rule="evenodd" clip-rule="evenodd" d="M16 6.08582L16.7071 6.79292L20.2071 10.2929L18.7929 11.7071L17 9.91424V19H15V9.91424L13.2071 11.7071L11.7929 10.2929L15.2929 6.79292L16 6.08582ZM13 13H12.5C10.8431 13 9.5 14.3432 9.5 16V21C9.5 22.6569 10.8431 24 12.5 24H19.5C21.1569 24 22.5 22.6569 22.5 21V16C22.5 14.3432 21.1569 13 19.5 13H19V15H19.5C20.0523 15 20.5 15.4477 20.5 16V21C20.5 21.5523 20.0523 22 19.5 22H12.5C11.9477 22 11.5 21.5523 11.5 21V16C11.5 15.4477 11.9477 15 12.5 15H13V13Z" fill="black"/>
</svg>
